<svg width="38" height="38" viewBox="0 0 38 38" fill="none" xmlns="http://www.w3.org/2000/svg">
<rect x="0.5" y="0.5" width="37" height="37" rx="18.5" fill="white" fill-opacity="0.32"/>
<rect x="0.5" y="0.5" width="37" height="37" rx="18.5" stroke="white"/>
<path fill-rule="evenodd" clip-rule="evenodd" d="M12.9231 12.9231C13.4872 12.359 14.4017 12.359 14.9658 12.9231L19 16.9572L23.0342 12.9231C23.5983 12.359 24.5128 12.359 25.0769 12.9231C25.641 13.4872 25.641 14.4017 25.0769 14.9658L21.0428 19L25.0769 23.0342C25.641 23.5983 25.641 24.5128 25.0769 25.0769C24.5128 25.641 23.5983 25.641 23.0342 25.0769L19 21.0428L14.9658 25.0769C14.4017 25.641 13.4872 25.641 12.9231 25.0769C12.359 24.5128 12.359 23.5983 12.9231 23.0342L16.9572 19L12.9231 14.9658C12.359 14.4017 12.359 13.4872 12.9231 12.9231Z" fill="white"/>
</svg>
